<?xml version="1.0" encoding="UTF-8" standalone="no"?>
<svg width="1594px" height="900px" viewBox="0 0 1594 900" version="1.1" xmlns="http://www.w3.org/2000/svg" xmlns:xlink="http://www.w3.org/1999/xlink" xmlns:sketch="http://www.bohemiancoding.com/sketch/ns">
    <!-- Generator: Sketch 3.2.2 (9983) - http://www.bohemiancoding.com/sketch -->
    <title>Artboard 1</title>
    <desc>Created with Sketch.</desc>
    <defs></defs>
    <g id="Page-1" stroke="none" stroke-width="1" fill="none" fill-rule="evenodd" sketch:type="MSPage">
        <g id="Artboard-1" sketch:type="MSArtboardGroup">
            <rect id="Rectangle-1" fill="#1E7421" sketch:type="MSShapeGroup" x="0" y="473" width="860" height="433"></rect>
            <path d="M995,189 L917.125,189 C883.429688,189 860,203.335938 860,253.257812 L860,900 L1010,900 L1010,298 L1280,298 L1280,189 L995,189 Z" id="Rectangle-2" fill="#E1DFD5" sketch:type="MSShapeGroup"></path>
            <rect id="Rectangle-7" fill="#E0DED4" sketch:type="MSShapeGroup" x="0" y="462" width="860" height="12"></rect>
            <g id="Group" sketch:type="MSLayerGroup" transform="translate(147.000000, 189.000000)">
                <rect id="Rectangle-10" fill="#FFFFFF" sketch:type="MSShapeGroup" transform="translate(998.000000, 273.000000) rotate(-90.000000) translate(-998.000000, -273.000000) " x="995" y="138" width="6" height="270"></rect>
                <rect id="Rectangle-11" fill="#4990E2" sketch:type="MSShapeGroup" transform="translate(998.000000, 446.000000) rotate(-90.000000) translate(-998.000000, -446.000000) " x="995" y="311" width="6" height="270"></rect>
                <rect id="Rectangle-12" fill="#4990E2" sketch:type="MSShapeGroup" transform="translate(998.000000, 618.000000) rotate(-90.000000) translate(-998.000000, -618.000000) " x="995" y="483" width="6" height="270"></rect>
                <rect id="Rectangle-3" fill="#FFFFFF" sketch:type="MSShapeGroup" x="540" y="0" width="6" height="273"></rect>
                <rect id="Rectangle-4" fill="#FFFFFF" sketch:type="MSShapeGroup" x="360" y="0" width="6" height="273"></rect>
                <rect id="Rectangle-6" fill="#FFFFFF" sketch:type="MSShapeGroup" x="180" y="0" width="6" height="273"></rect>
                <rect id="Rectangle-5" fill="#FFFFFF" sketch:type="MSShapeGroup" x="0" y="0" width="6" height="273"></rect>
                <rect id="Rectangle-8" fill="#FFFFFF" sketch:type="MSShapeGroup" x="0" y="0" width="6" height="273"></rect>
            </g>
        </g>
    </g>
</svg>